<?xml version="1.0" standalone="no"?>
<!DOCTYPE svg PUBLIC "-//W3C//DTD SVG 20010904//EN"
 "http://www.w3.org/TR/2001/REC-SVG-20010904/DTD/svg10.dtd">
<svg version="1.0" xmlns="http://www.w3.org/2000/svg"
 width="512.000000pt" height="512.000000pt" viewBox="0 0 512.000000 512.000000"
 preserveAspectRatio="xMidYMid meet">
<metadata>
Created by potrace 1.11, written by Peter Selinger 2001-2013
</metadata>
<g transform="translate(0.000000,512.000000) scale(0.100000,-0.100000)"
fill="#000000" stroke="none">
<path d="M2124 4920 c-101 -21 -220 -112 -266 -205 -23 -45 -29 -63 -45 -130
-2 -11 -5 -135 -5 -275 0 -140 -3 -257 -7 -260 -3 -3 -55 -70 -116 -150 -60
-80 -113 -146 -117 -148 -4 -2 -8 -10 -8 -17 0 -8 -6 -18 -13 -22 -6 -4 -61
-73 -122 -153 -60 -80 -111 -147 -115 -150 -3 -3 -18 -23 -35 -45 -16 -22 -34
-43 -39 -47 -7 -5 -7 -8 -1 -8 6 0 5 -4 -2 -8 -7 -4 -45 -51 -85 -103 -262
-343 -367 -480 -402 -525 -23 -28 -50 -64 -61 -79 -11 -16 -24 -33 -30 -39 -5
-6 -27 -34 -47 -61 -21 -28 -41 -54 -46 -60 -4 -5 -35 -46 -67 -90 -33 -43
-67 -87 -75 -96 -8 -10 -19 -24 -25 -31 -13 -18 -137 -180 -150 -196 -5 -7
-17 -21 -25 -31 -8 -9 -26 -33 -40 -54 -14 -20 -28 -37 -32 -37 -5 0 -8 -6 -8
-14 0 -8 -3 -16 -7 -18 -15 -6 -82 -95 -104 -137 -58 -111 -18 -231 99 -303
21 -12 39 -24 42 -27 7 -8 182 -125 194 -130 6 -2 15 -8 21 -13 5 -5 45 -33
87 -63 l77 -54 41 52 c22 29 46 59 53 67 7 9 46 60 87 115 41 55 80 105 85
111 6 7 19 24 30 40 11 15 25 32 30 38 6 6 21 27 35 46 13 19 30 42 37 50 8 8
66 85 131 170 162 215 160 213 173 228 6 7 45 59 88 115 121 160 152 200 177
232 26 35 545 716 577 759 12 16 28 35 35 42 6 7 12 17 12 22 0 6 4 12 8 14 8
3 185 231 345 446 34 45 64 82 67 82 3 0 41 -49 85 -108 44 -59 83 -109 86
-112 3 -3 19 -23 35 -45 16 -23 35 -47 42 -55 7 -8 75 -96 150 -196 75 -99
147 -194 160 -210 12 -16 43 -56 68 -89 25 -33 50 -67 57 -75 7 -9 25 -33 41
-55 16 -22 34 -45 40 -50 6 -6 16 -18 21 -27 9 -14 228 -305 262 -348 7 -8 49
-62 93 -120 45 -58 86 -112 93 -120 7 -8 43 -58 82 -110 38 -52 72 -97 75
-100 3 -3 21 -25 40 -50 19 -25 37 -47 40 -50 4 -3 27 -34 52 -70 26 -36 56
-75 67 -87 12 -12 21 -25 21 -28 0 -4 21 -32 46 -63 65 -81 65 -81 114 -147
152 -203 233 -305 242 -305 6 0 33 16 59 35 27 19 53 35 58 35 5 0 11 4 13 8
2 4 64 48 138 97 169 113 154 102 210 155 94 89 89 220 -12 330 -13 14 -41 50
-63 80 -48 67 -48 66 -85 110 -16 19 -30 38 -30 41 0 3 -9 17 -21 30 -12 13
-46 58 -77 99 -31 41 -59 77 -62 80 -3 3 -25 32 -50 65 -25 33 -51 66 -57 75
-7 8 -71 92 -143 185 -161 210 -209 273 -307 401 -43 55 -89 115 -103 134 -14
18 -68 89 -120 156 -52 67 -102 132 -110 144 -8 12 -22 30 -30 40 -37 44 -76
94 -84 108 -5 8 -15 22 -22 31 -7 9 -48 61 -91 116 -43 55 -81 102 -85 103 -4
2 -8 10 -8 18 0 8 -4 14 -8 14 -4 0 -15 12 -24 28 -10 15 -27 39 -40 54 -13
14 -32 39 -43 54 -11 15 -26 33 -32 40 -7 7 -13 17 -13 23 0 6 -4 11 -9 11 -4
0 -9 116 -9 258 -1 141 -3 264 -5 272 -2 8 -7 31 -11 50 -5 19 -18 53 -29 75
-11 22 -19 41 -19 42 6 10 -111 115 -147 133 -94 47 -109 48 -534 48 -221 0
-421 -4 -443 -8z m855 -84 c111 -22 209 -125 237 -246 4 -19 8 -152 9 -295 1
-253 5 -292 34 -315 4 -3 32 -39 64 -80 31 -41 60 -79 64 -85 5 -5 31 -39 58
-75 27 -36 52 -67 55 -70 3 -3 34 -43 69 -90 35 -47 68 -86 73 -88 4 -2 8 -8
8 -14 0 -6 14 -27 30 -47 17 -20 34 -40 38 -46 4 -5 57 -75 117 -153 61 -79
145 -190 187 -245 43 -56 83 -109 90 -117 12 -13 38 -47 142 -185 24 -33 52
-67 60 -76 9 -9 16 -19 16 -22 0 -4 9 -17 19 -29 42 -49 57 -67 71 -88 8 -12
20 -28 25 -34 6 -6 23 -29 40 -51 16 -22 33 -44 37 -50 5 -5 38 -48 74 -95 35
-47 71 -93 79 -103 8 -9 15 -19 15 -22 0 -3 7 -13 16 -22 58 -66 84 -100 84
-110 0 -6 4 -13 9 -15 4 -1 46 -52 91 -113 46 -60 86 -112 90 -115 3 -3 16
-21 28 -41 37 -61 28 -129 -23 -166 -14 -10 -38 -28 -53 -40 -15 -13 -31 -23
-36 -23 -5 0 -17 -7 -27 -15 -18 -18 -7 -31 -298 350 -72 94 -134 175 -138
180 -5 6 -53 69 -108 140 -154 202 -259 339 -272 355 -30 38 -194 253 -248
325 -33 44 -62 82 -65 85 -3 3 -25 32 -50 65 -25 33 -47 62 -50 65 -3 3 -21
25 -40 50 -19 25 -38 47 -42 48 -4 2 -8 8 -8 14 0 8 -51 76 -102 138 -7 8 -33
41 -57 74 -41 57 -52 70 -76 99 -6 7 -24 30 -40 52 -17 22 -56 74 -88 115 -31
41 -61 80 -65 85 -4 6 -45 60 -92 120 l-85 110 -5 215 c-5 206 -6 217 -27 240
-13 13 -23 27 -23 32 0 4 -19 18 -42 30 -41 21 -55 22 -288 22 -219 0 -249 -2
-280 -19 -89 -47 -100 -81 -100 -319 l0 -195 -75 -96 c-41 -52 -75 -100 -75
-105 0 -5 -6 -13 -13 -17 -7 -4 -59 -69 -115 -143 -99 -131 -120 -159 -153
-199 -8 -11 -24 -32 -35 -47 -10 -14 -37 -50 -60 -78 -22 -28 -69 -89 -104
-136 -35 -47 -67 -87 -70 -90 -3 -3 -17 -21 -30 -40 -13 -19 -27 -37 -30 -40
-3 -3 -18 -23 -35 -45 -16 -22 -31 -42 -35 -45 -3 -3 -25 -32 -50 -65 -24 -33
-48 -64 -52 -70 -15 -17 -556 -724 -693 -905 -72 -94 -135 -176 -140 -183 -6
-7 -29 -37 -53 -67 -23 -30 -54 -69 -68 -87 l-25 -32 -57 37 c-31 20 -65 44
-75 52 -21 17 -56 80 -51 95 1 6 5 21 8 35 3 14 41 72 85 128 43 57 88 115 98
129 10 14 29 40 43 57 14 17 39 49 55 71 16 22 31 42 35 45 3 3 25 32 50 65
24 33 49 65 55 71 27 30 45 55 45 63 0 5 3 11 8 13 4 2 27 30 52 63 25 33 50
65 55 71 6 6 19 23 30 38 42 59 100 131 107 134 5 2 8 10 8 17 0 7 4 15 8 17
5 2 41 46 80 98 40 52 87 114 104 136 18 23 42 55 53 70 11 15 27 35 35 44 8
8 26 32 40 53 14 20 28 37 33 37 4 0 7 6 7 14 0 8 4 16 8 18 5 2 37 41 72 88
36 47 67 87 70 90 3 3 27 34 53 70 47 63 73 97 111 142 10 13 32 43 49 68 17
25 36 50 42 55 6 6 31 37 56 70 74 101 151 200 181 235 11 14 33 43 47 64 l26
40 1 255 c0 252 6 334 26 359 6 6 7 12 4 12 -10 0 44 71 79 103 38 36 106 67
164 76 59 8 766 6 810 -3z"/>
<path d="M2539 3542 c-8 -9 -47 -57 -85 -107 -38 -49 -129 -166 -202 -260
-153 -196 -138 -177 -315 -405 -75 -96 -142 -182 -150 -190 -7 -8 -44 -55 -82
-105 -38 -49 -75 -96 -82 -103 -7 -7 -13 -16 -13 -20 0 -4 -13 -21 -28 -38
-15 -17 -36 -44 -47 -59 -11 -15 -28 -35 -37 -44 -10 -8 -18 -21 -18 -27 0 -7
-3 -14 -8 -16 -6 -2 -65 -76 -152 -188 -87 -112 -146 -186 -152 -188 -5 -2 -8
-9 -8 -16 0 -6 -8 -19 -17 -28 -21 -20 -12 -9 -142 -178 -57 -74 -107 -137
-110 -140 -3 -3 -20 -23 -36 -45 l-31 -40 2 -570 c1 -314 2 -573 3 -578 0 -4
135 -6 299 -5 l297 3 0 227 c0 124 3 230 7 234 6 5 399 9 563 5 l30 -1 0 -226
c0 -124 2 -229 5 -235 4 -6 435 -8 1136 -7 l1129 3 0 579 c0 454 -3 580 -12
583 -7 3 -13 9 -13 15 0 10 -54 82 -80 108 -9 8 -27 31 -40 50 -26 37 -39 54
-82 103 -15 18 -28 35 -28 38 0 3 -8 15 -17 27 -33 38 -65 78 -126 157 -4 6
-21 26 -37 45 -16 19 -32 43 -36 53 -3 9 -9 17 -13 17 -5 0 -20 17 -34 38 -26
39 -40 57 -119 153 -27 32 -48 61 -48 64 0 3 -8 14 -17 24 -10 11 -23 26 -28
33 -6 7 -21 27 -35 44 -14 17 -36 45 -50 64 -14 18 -45 59 -70 90 -25 31 -56
72 -70 90 -14 18 -38 49 -53 69 -59 74 -78 99 -173 221 -54 69 -102 130 -106
135 -9 11 -67 86 -178 230 -41 53 -80 102 -85 108 -6 7 -48 60 -93 120 -46 59
-86 107 -90 106 -4 0 -14 -8 -23 -17z m167 -642 c7 0 11 -61 10 -190 0 -185 0
-190 -20 -191 -77 -4 -298 -1 -303 4 -4 5 -6 190 -4 347 l1 35 152 -2 c84 -1
158 -2 164 -3z m-495 -697 c0 -18 1 -89 1 -158 0 -69 -1 -141 -1 -160 l-1 -35
-164 1 -163 2 0 192 1 192 163 0 163 0 1 -34z m1007 -160 l2 -192 -165 0 -165
1 0 193 0 193 163 -2 162 -1 3 -192z m-1463 -686 l0 -192 -165 0 -165 0 1 180
c1 99 2 186 3 193 1 9 41 12 164 12 l162 0 0 -193z m949 11 c-1 -101 -2 -187
-3 -193 0 -6 -63 -10 -164 -10 l-162 -1 1 191 c1 104 2 191 3 193 0 1 74 2
164 2 l162 0 -1 -182z m972 -10 l0 -193 -163 0 -163 0 0 30 c-1 45 -1 296 -1
328 l1 27 163 0 163 0 0 -192z"/>
</g>
</svg>
